<svg xmlns="http://www.w3.org/2000/svg" xmlns:xlink="http://www.w3.org/1999/xlink" width="100" height="100" viewBox="0 0 100 100">
  <defs>
    <clipPath id="clip-Custom_Size_1">
      <rect width="100" height="100"/>
    </clipPath>
  </defs>
  <g id="Custom_Size_1" data-name="Custom Size – 1" clip-path="url(#clip-Custom_Size_1)">
    <g id="Group_1" data-name="Group 1">
      <path id="Icon_zocial-twitter" data-name="Icon zocial-twitter" d="M-4.738,10.4q.364.035.728.036A6.019,6.019,0,0,0-.2,9.129a2.95,2.95,0,0,1-1.783-.607A2.984,2.984,0,0,1-3.063,7a2.885,2.885,0,0,0,.57.049,3,3,0,0,0,.813-.109A2.952,2.952,0,0,1-3.446,5.9a2.967,2.967,0,0,1-.7-1.948V3.911a2.872,2.872,0,0,0,1.4.376,3.006,3.006,0,0,1-1-1.086,2.985,2.985,0,0,1-.37-1.462A2.974,2.974,0,0,1-3.694.2,8.513,8.513,0,0,0-.909,2.462a8.619,8.619,0,0,0,3.525.94,3.443,3.443,0,0,1-.085-.7,2.944,2.944,0,0,1,.9-2.16A2.959,2.959,0,0,1,5.6-.359,2.942,2.942,0,0,1,7.833.612c.7-.146.942-.6,1.714-.476.208.4-.444,1.026-1.107,1.422a6.252,6.252,0,0,0,1.747-.485A5.875,5.875,0,0,1,8.67,2.662v.4A8.78,8.78,0,0,1,8.312,5.52,8.743,8.743,0,0,1,7.22,7.874a9.374,9.374,0,0,1-1.753,2,7.772,7.772,0,0,1-2.445,1.39,8.935,8.935,0,0,1-3.064.515,8.6,8.6,0,0,1-4.7-1.379Z" transform="translate(13.276 9.537)" fill="#fff"/>
      <rect id="Rectangle_1" data-name="Rectangle 1" width="7" height="86" transform="translate(0 7)" fill="#7e1d1d"/>
      <rect id="Rectangle_2" data-name="Rectangle 2" width="7" height="86" transform="translate(93 93) rotate(90)" fill="#7e1d1d"/>
      <rect id="Rectangle_3" data-name="Rectangle 3" width="7" height="86" transform="translate(93 7)" fill="#7e1d1d"/>
      <rect id="Rectangle_4" data-name="Rectangle 4" width="7" height="86" transform="translate(93) rotate(90)" fill="#7e1d1d"/>
      <path id="Rectangle_5" data-name="Rectangle 5" d="M0,0H86V86H0Z" transform="translate(7 7)" fill="#ff6969"/>
      <rect id="Rectangle_6" data-name="Rectangle 6" width="86" height="6" transform="translate(7 7)" fill="#f88597"/>
      <rect id="Rectangle_7" data-name="Rectangle 7" width="86" height="6" transform="translate(7 87)" fill="#c44444"/>
      <path id="Icon_awesome-twitter" data-name="Icon awesome-twitter" d="M50.469,14.767c.036.5.036,1,.036,1.5,0,15.241-11.6,32.8-32.8,32.8A32.579,32.579,0,0,1,0,43.892a23.849,23.849,0,0,0,2.784.143A23.088,23.088,0,0,0,17.1,39.109a11.549,11.549,0,0,1-10.779-8,14.539,14.539,0,0,0,2.177.178,12.193,12.193,0,0,0,3.034-.393A11.53,11.53,0,0,1,2.284,19.585v-.143A11.61,11.61,0,0,0,7.5,20.906,11.546,11.546,0,0,1,3.926,5.487,32.77,32.77,0,0,0,27.7,17.551a13.014,13.014,0,0,1-.286-2.641,11.54,11.54,0,0,1,19.95-7.889,22.7,22.7,0,0,0,7.317-2.784,11.5,11.5,0,0,1-5.068,6.353A23.111,23.111,0,0,0,56.252,8.8a24.782,24.782,0,0,1-5.782,5.961Z" transform="translate(21.875 23.776)" fill="none"/>
      <path id="Icon_awesome-file-contract" data-name="Icon awesome-file-contract" d="M24.207,14.7V0H2.594A2.587,2.587,0,0,0,0,2.594V52.736A2.587,2.587,0,0,0,2.594,55.33H38.9A2.587,2.587,0,0,0,41.5,52.736V17.29H26.8A2.6,2.6,0,0,1,24.207,14.7ZM6.916,7.781a.864.864,0,0,1,.865-.865h8.645a.864.864,0,0,1,.865.865V9.51a.864.864,0,0,1-.865.865H7.781a.864.864,0,0,1-.865-.865Zm0,6.916a.864.864,0,0,1,.865-.865h8.645a.864.864,0,0,1,.865.865v1.729a.864.864,0,0,1-.865.865H7.781a.864.864,0,0,1-.865-.865ZM27.752,41.5h5.1a1.729,1.729,0,1,1,0,3.458h-5.1a4.646,4.646,0,0,1-4.176-2.578,1.2,1.2,0,0,0-1.1-.7,1.179,1.179,0,0,0-1.083.669L20.566,44a1.728,1.728,0,0,1-1.546.955c-.041,0-.081,0-.123-.005a1.723,1.723,0,0,1-1.516-1.177l-1.819-5.453-1.147,3.445a4.665,4.665,0,0,1-4.431,3.191H8.645a1.729,1.729,0,1,1,0-3.458H9.984a1.211,1.211,0,0,0,1.15-.828l1.966-5.9a2.595,2.595,0,0,1,4.922,0l1.5,4.5a4.849,4.849,0,0,1,7.132,1.53A1.233,1.233,0,0,0,27.752,41.5Zm12.988-30.15L30.161.756A2.592,2.592,0,0,0,28.324,0h-.659V13.832H41.5v-.659A2.585,2.585,0,0,0,40.741,11.347Z" transform="translate(29.251 22.335)" fill="#fff"/>
    </g>
  </g>
</svg>
