<svg xmlns="http://www.w3.org/2000/svg" xmlns:xlink="http://www.w3.org/1999/xlink" width="101" height="86" viewBox="0 0 101 86">
  <defs>
    <clipPath id="clip-path">
      <rect id="Rectangle_1" data-name="Rectangle 1" width="94" height="73" fill="#916b6b"/>
    </clipPath>
    <clipPath id="clip-iPhone_12_Pro_Max_1">
      <rect width="101" height="86"/>
    </clipPath>
  </defs>
  <g id="iPhone_12_Pro_Max_1" data-name="iPhone 12 Pro Max – 1" clip-path="url(#clip-iPhone_12_Pro_Max_1)">
    <g id="discord" transform="translate(4 7)" clip-path="url(#clip-path)">
      <path id="Path_1" data-name="Path 1" d="M79.775,6.366A77.711,77.711,0,0,0,60.594.417a.291.291,0,0,0-.308.146A54.132,54.132,0,0,0,57.9,5.468a71.742,71.742,0,0,0-21.544,0A49.649,49.649,0,0,0,33.927.562a.3.3,0,0,0-.308-.146A77.5,77.5,0,0,0,14.438,6.366a.274.274,0,0,0-.126.108C2.094,24.726-1.252,42.529.389,60.112a.324.324,0,0,0,.123.221A78.146,78.146,0,0,0,24.043,72.228a.3.3,0,0,0,.331-.108,55.853,55.853,0,0,0,4.814-7.83.3.3,0,0,0-.163-.415,51.462,51.462,0,0,1-7.351-3.5.3.3,0,0,1-.03-.5c.494-.37.988-.755,1.46-1.144a.291.291,0,0,1,.3-.041,55.729,55.729,0,0,0,47.359,0,.29.29,0,0,1,.308.037c.472.389.966.778,1.464,1.148a.3.3,0,0,1-.026.5,48.291,48.291,0,0,1-7.355,3.5.3.3,0,0,0-.16.419,62.711,62.711,0,0,0,4.81,7.827.3.3,0,0,0,.331.112A77.886,77.886,0,0,0,93.708,60.333a.3.3,0,0,0,.123-.217C95.8,39.788,90.54,22.131,79.9,6.478A.24.24,0,0,0,79.775,6.366ZM31.491,49.406c-4.643,0-8.469-4.263-8.469-9.5s3.752-9.5,8.469-9.5c4.754,0,8.543,4.3,8.469,9.5C39.96,45.143,36.208,49.406,31.491,49.406Zm31.313,0c-4.643,0-8.469-4.263-8.469-9.5s3.752-9.5,8.469-9.5c4.755,0,8.543,4.3,8.469,9.5C71.273,45.143,67.558,49.406,62.8,49.406Z" transform="translate(0 0.135)" fill="#23272a"/>
    </g>
  </g>
</svg>
